<?xml version="1.0" encoding="UTF-8" standalone="no"?>
<svg
   xmlns:dc="http://purl.org/dc/elements/1.1/"
   xmlns:cc="http://creativecommons.org/ns#"
   xmlns:rdf="http://www.w3.org/1999/02/22-rdf-syntax-ns#"
   xmlns:svg="http://www.w3.org/2000/svg"
   xmlns="http://www.w3.org/2000/svg"
   xmlns:sodipodi="http://sodipodi.sourceforge.net/DTD/sodipodi-0.dtd"
   xmlns:inkscape="http://www.inkscape.org/namespaces/inkscape"
   version="1.1"
   x="0px"
   y="0px"
   viewBox="0 0 100 125"
   enable-background="new 0 0 100 100"
   xml:space="preserve"
   id="svg10"
   sodipodi:docname="ElectricityMeter.svg"
   inkscape:version="0.92.1 r15371"><metadata
     id="metadata16"><rdf:RDF><cc:Work
         rdf:about=""><dc:format>image/svg+xml</dc:format><dc:type
           rdf:resource="http://purl.org/dc/dcmitype/StillImage" /><dc:title></dc:title></cc:Work></rdf:RDF></metadata><defs
     id="defs14" /><sodipodi:namedview
     pagecolor="#ffffff"
     bordercolor="#666666"
     borderopacity="1"
     objecttolerance="10"
     gridtolerance="10"
     guidetolerance="10"
     inkscape:pageopacity="0"
     inkscape:pageshadow="2"
     inkscape:window-width="1600"
     inkscape:window-height="878"
     id="namedview12"
     showgrid="false"
     inkscape:zoom="1.888"
     inkscape:cx="40.730932"
     inkscape:cy="62.5"
     inkscape:window-x="-8"
     inkscape:window-y="-8"
     inkscape:window-maximized="1"
     inkscape:current-layer="svg10" /><g
     id="g4"
     transform="translate(1.059322,10.59322)"><path
       d="m 46.712,17.446 h -4.729 v 5.308 h 4.729 z m 5.474,0 h -4.644 v 5.308 h 4.644 z m -12.909,5.308 h 1.877 v -5.308 h -1.877 c -1.469,0 -2.662,1.187 -2.662,2.654 0,1.469 1.194,2.654 2.662,2.654 z M 63.144,20.1 c 0,-1.467 -1.194,-2.654 -2.659,-2.654 h -1.829 v 5.308 h 1.829 c 1.464,0 2.659,-1.185 2.659,-2.654 z M 19.838,66.731 v 0.563 c 0,2.328 0.847,5.95 1.889,8.07 l 7.681,15.655 C 30.48,93.213 33.208,95 35.485,95 h 29.03 c 2.273,0 4.995,-1.787 6.071,-3.979 l 7.673,-15.655 c 1.038,-2.108 1.877,-5.728 1.877,-8.07 V 66.67 c -5.43,3.316 -14.31,5.596 -30.138,5.596 -16.177,0 -24.811,-2.253 -30.16,-5.535 z m 30.233,11.802 c -1.158,0 -2.099,-0.938 -2.099,-2.098 0,-0.465 0.155,-0.9 0.414,-1.25 l 2.961,2.916 c -0.352,0.272 -0.796,0.432 -1.276,0.432 z m 2.097,-2.097 c 0,0.438 -0.134,0.85 -0.366,1.185 l -2.94,-2.894 c 0.341,-0.246 0.758,-0.386 1.21,-0.386 1.157,-10e-4 2.096,0.937 2.096,2.095 z m 5.575,-58.99 h -4.645 v 5.308 h 4.645 v -5.308 z m -18.466,6.438 h 21.209 c 2.104,0 3.814,-1.711 3.814,-3.817 0,-2.105 -1.711,-3.817 -3.814,-3.817 H 39.277 c -2.105,0 -3.817,1.712 -3.817,3.817 0,2.106 1.712,3.817 3.817,3.817 z m 0,-7.057 h 21.209 c 1.788,0 3.237,1.452 3.237,3.24 0,1.79 -1.449,3.239 -3.237,3.239 H 39.277 c -1.788,0 -3.239,-1.45 -3.239,-3.239 -10e-4,-1.788 1.451,-3.24 3.239,-3.24 z M 80.748,10.425 C 76.199,6.45 67.585,5 50,5 32.377,5 23.755,6.439 19.251,10.35 c -4.421,3.84 -5.166,11.245 -5.166,26.394 0,15.162 0.741,22.57 5.133,26.395 4.491,3.909 13.128,6.318 30.782,6.318 17.618,0 26.243,-2.421 30.78,-6.394 4.396,-3.849 5.135,-11.231 5.135,-26.32 0,-15.077 -0.741,-22.454 -5.167,-26.318 z m -3.491,39.898 c -0.419,4.543 -1.218,7.244 -2.516,8.504 -3.155,3.062 -13.053,3.312 -24.701,3.312 -11.679,0 -21.6,-0.244 -24.714,-3.248 -1.292,-1.247 -2.088,-3.949 -2.505,-8.508 -0.338,-3.686 -0.406,-8.173 -0.406,-13.775 0,-5.597 0.068,-10.079 0.41,-13.764 0.422,-4.555 1.225,-7.261 2.527,-8.515 3.125,-3.008 13.028,-3.253 24.687,-3.253 11.626,0 21.507,0.25 24.675,3.317 1.309,1.266 2.115,3.972 2.539,8.511 0.341,3.67 0.411,8.133 0.411,13.704 0,5.576 -0.069,10.043 -0.407,13.715 z m -22.499,6.605 h -9.456 c -0.229,0 -0.415,0.187 -0.415,0.415 v 1.91 c 0,0.227 0.186,0.413 0.415,0.413 h 9.456 c 0.229,0 0.412,-0.185 0.412,-0.413 v -1.91 c 0,-0.229 -0.184,-0.415 -0.412,-0.415 z m 2.01,-21.018 c 0.068,0.1 0.184,0.157 0.301,0.157 0.048,0 0.095,-0.01 0.143,-0.027 l 3.515,-1.53 c 0.129,-0.058 0.217,-0.187 0.217,-0.331 0,-0.142 -0.088,-0.272 -0.217,-0.329 l -3.515,-1.536 c -0.156,-0.069 -0.345,-0.016 -0.443,0.129 -0.098,0.144 -0.077,0.316 0.044,0.439 l 0.862,0.821 h -14.66 l -1.614,-0.904 c -0.04,-0.022 -0.086,-0.008 -0.134,-0.008 h -2.101 c -0.121,0 -0.226,0.072 -0.258,0.188 -0.029,0.117 0.021,0.235 0.125,0.296 l 1.57,0.903 -1.568,0.901 c -0.106,0.059 -0.156,0.199 -0.127,0.315 0.031,0.119 0.137,0.215 0.258,0.215 h 2.101 c 0.047,0 0.094,-0.026 0.134,-0.049 l 1.622,-0.946 h 14.652 l -0.862,0.836 c -0.123,0.125 -0.143,0.315 -0.045,0.46 z M 43.975,54.024 h 2.405 c 0.253,0 0.456,-0.201 0.456,-0.456 0,-0.253 -0.203,-0.454 -0.456,-0.454 h -2.405 c -0.252,0 -0.456,0.201 -0.456,0.454 0,0.255 0.204,0.456 0.456,0.456 z M 68.988,38.408 c -3.71,1.046 -8.561,2.018 -13.638,2.43 0,0 -2.396,0.062 -3.047,2.699 0,0 -0.867,0.431 -2.275,0.431 H 50.01 c -1.407,0 -2.274,-0.431 -2.274,-0.431 -0.652,-2.636 -3.047,-2.699 -3.047,-2.699 -5.082,-0.413 -10.057,-1.383 -13.767,-2.43 -0.869,-0.246 -2.34,-0.207 -2.543,1.515 -0.204,1.725 0.753,5.5 0.753,5.5 5.104,2.056 12.364,3.353 20.731,3.353 h 0.183 c 8.365,0 15.629,-1.297 20.734,-3.353 0,0 0.956,-3.775 0.751,-5.5 -0.204,-1.722 -1.675,-1.761 -2.543,-1.515 z M 29.873,44.573 C 29.79,44.568 29.79,44.561 29.79,44.554 v -0.891 c 0,0.006 0,0.014 0.083,0.021 z m 0.499,0.112 c -0.083,-0.006 -0.083,-0.013 -0.083,-0.02 v -0.887 c 0,0.004 0,0.011 0.083,0.018 z m 0.58,0.125 c -0.083,-0.013 -0.165,-0.022 -0.165,-0.035 v -0.888 c 0,0.013 0.082,0.025 0.165,0.037 z m 0.663,0.14 c -0.083,-0.018 -0.166,-0.034 -0.249,-0.052 v -0.886 c 0.083,0.018 0.166,0.034 0.249,0.052 z m 0.664,0.132 C 32.196,45.065 32.114,45.05 32.03,45.033 v -0.884 c 0.084,0.018 0.166,0.033 0.249,0.05 z m 0.746,0.144 C 32.86,45.205 32.777,45.184 32.694,45.163 V 44.28 c 0.083,0.021 0.166,0.042 0.331,0.064 z m 0.829,0.15 c -0.166,-0.023 -0.331,-0.05 -0.414,-0.074 v -0.881 c 0.083,0.023 0.248,0.051 0.414,0.075 z m 0.832,0.146 c -0.167,-0.025 -0.332,-0.048 -0.415,-0.071 v -0.88 c 0.083,0.023 0.248,0.046 0.415,0.072 z m 0.912,0.15 C 35.432,45.646 35.264,45.619 35.1,45.592 v -0.879 c 0.164,0.028 0.332,0.056 0.498,0.082 z m 0.995,0.154 c -0.25,-0.028 -0.415,-0.06 -0.582,-0.088 V 44.86 c 0.167,0.03 0.332,0.061 0.582,0.09 z m 1.079,0.153 C 37.422,45.95 37.174,45.918 37.009,45.887 V 45.01 c 0.165,0.032 0.413,0.063 0.663,0.095 z m 1.16,0.155 C 38.583,46.103 38.334,46.07 38.086,46.036 v -0.875 c 0.249,0.033 0.498,0.066 0.746,0.099 z m 1.245,0.148 C 39.744,46.25 39.496,46.218 39.248,46.184 v -0.872 c 0.249,0.032 0.497,0.064 0.829,0.097 z m 1.41,0.149 c -0.333,-0.033 -0.664,-0.067 -0.996,-0.102 v -0.873 c 0.333,0.037 0.664,0.072 0.996,0.104 z m 1.493,0.132 c -0.416,-0.028 -0.747,-0.06 -1.08,-0.095 v -0.87 c 0.333,0.034 0.664,0.065 1.08,0.096 z m 1.575,0.118 C 44.14,46.655 43.726,46.627 43.393,46.598 v -0.869 c 0.333,0.03 0.747,0.058 1.162,0.083 z m 1.659,0.089 C 45.8,46.75 45.385,46.728 44.97,46.705 v -0.867 c 0.415,0.023 0.83,0.046 1.244,0.065 z m 1.742,0.064 C 47.458,46.821 47.044,46.808 46.63,46.789 v -0.866 c 0.414,0.017 0.828,0.031 1.326,0.043 z m 1.824,0.024 c -0.499,0 -0.995,-0.005 -1.41,-0.016 v -0.867 c 0.415,0.008 0.911,0.014 1.41,0.017 z m 1.826,-0.013 c -0.502,0.009 -0.997,0.014 -1.41,0.015 v -0.867 c 0.413,-0.001 0.908,-0.007 1.41,-0.016 z m 1.742,-0.052 c -0.497,0.018 -0.911,0.03 -1.328,0.042 v -0.867 c 0.417,-0.012 0.831,-0.026 1.328,-0.042 z m 1.659,-0.082 c -0.416,0.023 -0.831,0.046 -1.245,0.063 v -0.868 c 0.414,-0.018 0.829,-0.041 1.245,-0.064 z m 1.574,-0.107 c -0.414,0.03 -0.826,0.057 -1.16,0.08 v -0.867 c 0.334,-0.024 0.746,-0.054 1.16,-0.082 z m 1.493,-0.125 c -0.414,0.032 -0.743,0.064 -1.078,0.094 v -0.87 c 0.335,-0.03 0.666,-0.061 1.078,-0.094 z m 1.41,-0.142 c -0.331,0.036 -0.662,0.069 -0.996,0.101 v -0.87 c 0.334,-0.032 0.665,-0.068 0.996,-0.103 z m 1.245,-0.141 c -0.331,0.032 -0.58,0.064 -0.831,0.096 V 45.42 c 0.251,-0.03 0.5,-0.062 0.831,-0.098 z m 1.163,-0.148 c -0.249,0.032 -0.501,0.064 -0.747,0.096 v -0.872 c 0.247,-0.033 0.5,-0.064 0.747,-0.098 z m 1.076,-0.149 c -0.248,0.032 -0.496,0.062 -0.663,0.094 v -0.875 c 0.167,-0.03 0.415,-0.062 0.663,-0.095 z m 0.996,-0.148 c -0.248,0.029 -0.413,0.059 -0.579,0.089 v -0.876 c 0.166,-0.03 0.331,-0.06 0.579,-0.089 z m 0.914,-0.147 c -0.168,0.027 -0.332,0.055 -0.5,0.082 v -0.878 c 0.168,-0.026 0.332,-0.054 0.5,-0.082 z m 0.827,-0.138 c -0.165,0.024 -0.331,0.047 -0.414,0.071 v -0.879 c 0.083,-0.025 0.249,-0.048 0.414,-0.072 z m 0.83,-0.148 c -0.166,0.024 -0.331,0.049 -0.413,0.075 v -0.88 c 0.082,-0.026 0.247,-0.05 0.413,-0.075 z m 0.744,-0.138 c -0.165,0.019 -0.246,0.041 -0.331,0.062 V 44.36 c 0.085,-0.021 0.166,-0.043 0.331,-0.062 z m 0.667,-0.13 c -0.082,0.017 -0.166,0.033 -0.249,0.049 v -0.883 c 0.083,-0.018 0.167,-0.034 0.249,-0.049 z m 0.663,-0.135 c -0.083,0.018 -0.168,0.035 -0.251,0.053 v -0.886 c 0.083,-0.018 0.168,-0.035 0.251,-0.051 z m 0.581,-0.122 c -0.083,0.012 -0.165,0.022 -0.165,0.036 v -0.886 c 0,-0.013 0.082,-0.025 0.165,-0.036 z m 0.497,-0.107 c -0.083,0.006 -0.083,0.013 -0.083,0.019 v -0.888 c 0,-0.007 0,-0.013 0.083,-0.02 z m 0.497,-0.113 c -0.083,0.007 -0.083,0.013 -0.083,0.02 v -0.89 c 0,-0.007 0,-0.013 0.083,-0.019 z M 59.898,54.107 H 49.035 c -0.253,0 -0.458,0.205 -0.458,0.457 0,0.252 0.205,0.458 0.458,0.458 h 10.863 c 0.254,0 0.457,-0.206 0.457,-0.458 0,-0.252 -0.203,-0.457 -0.457,-0.457 z M 45.137,26.57 v 3.732 h 9.787 V 26.57 Z m 6.591,11.728 h -3.376 c -0.128,0 -0.243,0.066 -0.309,0.173 -0.065,0.107 -0.07,0.24 -0.012,0.352 l 1.644,3.196 c 0.062,0.12 0.231,0.201 0.32,0.194 0.132,0 0.253,-0.071 0.318,-0.187 l 1.735,-3.197 c 0.058,-0.11 0.054,-0.246 -0.009,-0.355 -0.065,-0.109 -0.183,-0.176 -0.311,-0.176 z M 41.816,53.197 H 34.6 c -0.229,0 -0.415,0.186 -0.415,0.414 v 1.908 c 0,0.23 0.186,0.413 0.415,0.413 h 7.216 c 0.23,0 0.416,-0.182 0.416,-0.413 V 53.61 c 0,-0.227 -0.184,-0.413 -0.416,-0.413 z m 4.938,2.282 c 0,-0.253 -0.204,-0.457 -0.457,-0.457 h -2.322 c -0.252,0 -0.456,0.204 -0.456,0.457 0,0.252 0.204,0.454 0.456,0.454 h 2.322 c 0.253,0 0.457,-0.203 0.457,-0.454 z"
       id="path2"
       inkscape:connector-curvature="0"
       style="fill:#000000" /></g></svg>